PathFileType	4	(X/Y/Z)	0_coords_data.trc
DataRate	CameraRate	NumFrames	NumMarkers	Units	OrigDataRate	OrigDataStartFrame	OrigNumFrames
30.0	30.0	6	21	m	30.0	20	78
Frame#	Time	THUMB_TIP	THUMB_IP	THUMB_MCP	THUMB_CMC	INDEX_TIP	INDEX_DIP	INDEX_PIP	INDEX_MCP	MIDDLE_TIP	MIDDLE_DIP	MIDDLE_PIP	MIDDLE_MCP	RING_TIP	RING_DIP	RING_PIP	RING_MCP	PINKY_TIP	PINKY_DIP	PINKY_PIP	PINKY_MCP	WRIST
X1	Y1	Z1	X2	Y2	Z2	X3	Y3	Z3	X4	Y4	Z4	X5	Y5	Z5	X6	Y6	Z6	X7	Y7	Z7	X8	Y8	Z8	X9	Y9	Z9	X10	Y10	Z10	X11	Y11	Z11	X12	Y12	Z12	X13	Y13	Z13	X14	Y14	Z14	X15	Y15	Z15	X16	Y16	Z16	X17	Y17	Z17	X18	Y18	Z18	X19	Y19	Z19	X20	Y20	Z20	X21	Y21	Z21
19	0.6333333333333333	0.01801420021057129	-0.06853179931640625	0.9407379760742187	0.005375460147857666	-0.06520379638671875	0.967333984375	-0.008393099784851074	-0.06987169647216797	0.998718994140625	-0.020066900253295897	-0.04311249923706055	1.0210599975585937	0.00908788013458252	-0.047555801391601565	0.8965679931640625	-0.010636199951171875	-0.051007198333740233	0.9098090209960937	-0.03033679962158203	-0.054176300048828126	0.9269329833984375	-0.051542098999023435	-0.05819540023803711	0.9647039794921874	0.016812700271606446	-0.023845699310302733	0.8894660034179688	-0.00339805006980896	-0.02538509941101074	0.90439599609375	-0.027976900100708007	-0.027406499862670897	0.92410498046875	-0.054304698944091796	-0.031623300552368165	0.9632789916992187	0.02427490043640137	-0.00134206998348236	0.9083410034179688	0.002051000118255615	0.001566529989242553	0.9146380004882813	-0.02577680015563965	0.001846750020980835	0.92718701171875	-0.04670660018920898	-0.008713040351867676	0.9662440185546874	0.014770000457763673	0.013281399726867676	0.9323800048828125	-0.002714119911193847	0.020640399932861327	0.9368829956054687	-0.021953100204467772	0.024065799713134765	0.9459559936523437	-0.03612860107421875	0.01278279972076416	0.9734600219726562	-0.04824489974975586	-0.021336799621582032	1.05022998046875
20	0.6666666666666666	0.01790909957885742	-0.06854869842529297	0.9407379760742187	0.005426239967346191	-0.06525370025634766	0.9674119873046875	-0.00841586971282959	-0.06988510131835937	0.9989190063476563	-0.019997900009155273	-0.04311009979248047	1.0210700073242187	0.00987522029876709	-0.04755950164794922	0.8972230224609375	-0.010074600219726563	-0.050973400115966794	0.91014599609375	-0.030049299240112303	-0.054197700500488284	0.927155029296875	-0.051477500915527344	-0.05831729888916016	0.9645670166015625	0.01727829933166504	-0.02396150016784668	0.8899240112304687	-0.002968849897384643	-0.025483699798583986	0.9047579956054688	-0.02773150062561035	-0.02749850082397461	0.9242589721679687	-0.054202400207519534	-0.03170700073242187	0.9627369995117188	0.024566699981689453	-0.0014932199716567991	0.9087940063476563	0.002332200050354004	0.0014068599939346309	0.9149509887695313	-0.02564430046081543	0.001767910003662109	0.92731201171875	-0.04672499847412109	-0.008823909759521485	0.9662680053710937	0.014843600273132324	0.01319789981842041	0.9326420288085937	-0.002509419918060302	0.02049460029602051	0.937083984375	-0.021914800643920897	0.023981800079345705	0.9460700073242188	-0.036109298706054685	0.012730500221252442	0.9735460205078125	-0.04820449829101563	-0.021391599655151368	1.0501300048828126
21	0.7	0.018068199157714845	-0.06842510223388672	0.940822998046875	0.005542620182037354	-0.06519509887695313	0.9674249877929687	-0.008207329750061035	-0.06988770294189453	0.9989609985351563	-0.020072799682617187	-0.042906501770019534	1.0213300170898438	0.010611000061035157	-0.04752230072021484	0.897927001953125	-0.00951021957397461	-0.05094779968261719	0.9107349853515625	-0.02968190002441406	-0.0542234001159668	0.9273189697265625	-0.051457599639892576	-0.058436901092529296	0.964885986328125	0.017954200744628907	-0.024167999267578125	0.8905900268554687	-0.002425250053405761	-0.0256466007232666	0.9052059936523438	-0.02742060089111328	-0.027586399078369142	0.9245120239257812	-0.05434870147705078	-0.03190859985351562	0.9630919799804688	0.024914499282836913	-0.001687809944152832	0.9092080078125	0.0026629300117492673	0.001218649983406067	0.9153189697265625	-0.025364500045776367	0.001643599987030029	0.9274320068359375	-0.04680619812011719	-0.008899279594421387	0.966489013671875	0.014944000244140625	0.013152199745178223	0.9327849731445312	-0.002435050010681152	0.020470800399780272	0.9372069702148438	-0.02187030029296875	0.02389229965209961	0.9461519775390625	-0.035743999481201175	0.012770999908447265	0.9733270263671875	-0.048184600830078125	-0.021393800735473634	1.049949951171875
22	0.7333333333333333	0.01830120086669922	-0.06830560302734374	0.9408270263671875	0.005642069816589356	-0.06499440002441406	0.9675150146484375	-0.008016719818115234	-0.06992440032958984	0.998843017578125	-0.019815000534057617	-0.043054798126220706	1.021219970703125	0.01118589973449707	-0.047454299926757815	0.898448974609375	-0.009264450073242187	-0.05098970031738281	0.9110139770507812	-0.02944529914855957	-0.05425350189208984	0.9274959716796874	-0.05133629989624024	-0.05858599853515625	0.9651069946289063	0.018531000137329102	-0.024246700286865236	0.891176025390625	-0.0019311800003051752	-0.0257047004699707	0.9056259765625	-0.027153099060058594	-0.027629499435424806	0.92472998046875	-0.054233001708984374	-0.032003898620605466	0.9626710205078125	0.025222200393676758	-0.0018303600549697872	0.9096500244140625	0.002921250104904175	0.001133340001106262	0.9156630249023437	-0.02507990074157715	0.00155334997177124	0.9276699829101562	-0.046690799713134765	-0.00898153018951416	0.9665889892578124	0.01509280014038086	0.013117899894714355	0.9328170166015625	-0.0023473200798034667	0.02041670036315918	0.93739501953125	-0.021757600784301757	0.023828899383544922	0.9462780151367187	-0.036083198547363284	0.012610400199890136	0.973718017578125	-0.04799689865112305	-0.021521499633789062	1.0501199951171876
23	0.7666666666666667	0.018315799713134767	-0.06820269775390625	0.94077099609375	0.005685200214385986	-0.0650509033203125	0.9674349975585937	-0.007898759841918946	-0.0699529037475586	0.9987899780273437	-0.019760000228881837	-0.04317770004272461	1.0213800048828126	0.011446200370788574	-0.047468399047851564	0.8986259765625	-0.008877129554748535	-0.050995498657226565	0.91106201171875	-0.029152399063110353	-0.05431549835205078	0.927489990234375	-0.05119060134887695	-0.05861869812011719	0.96502099609375	0.018793399810791016	-0.024361099243164062	0.8915549926757812	-0.0015000599622726441	-0.025817100524902343	0.905916015625	-0.026891700744628905	-0.027727399826049805	0.9247899780273438	-0.05404130172729492	-0.03203210067749023	0.9636909790039062	0.025455299377441405	-0.001995260000228881	0.909875	0.0031943099498748777	0.0010738600492477411	0.9155960083007812	-0.024837900161743164	0.0014665800333023072	0.9277379760742187	-0.04659569931030273	-0.009031740188598633	0.9666530151367188	0.015195300102233886	0.012932499885559083	0.93310400390625	-0.0022062900066375734	0.020330299377441408	0.93743701171875	-0.02163220024108887	0.023745399475097656	0.9463480224609375	-0.036109798431396486	0.012561100006103516	0.9739149780273437	-0.04797200012207031	-0.021708900451660157	1.050260009765625
24	0.8	0.0183351993560791	-0.06819869995117188	0.9405800170898437	0.005706210136413575	-0.0649583969116211	0.967406005859375	-0.007828649997711181	-0.06995790100097657	0.9987639770507812	-0.019697200775146483	-0.04322100067138672	1.0216400146484375	0.011850500106811523	-0.04750619888305664	0.899093994140625	-0.0085135498046875	-0.05099900054931641	0.9112750244140625	-0.029024299621582032	-0.054364601135253904	0.927552978515625	-0.051259998321533204	-0.058854000091552734	0.964968017578125	0.01935639953613281	-0.024637100219726562	0.8920440063476562	-0.0012554700374603272	-0.0259591007232666	0.9062130126953125	-0.02679570007324219	-0.027815099716186523	0.9248289794921875	-0.054127700805664064	-0.032242599487304686	0.9627650146484374	0.02569569969177246	-0.002239089965820312	0.9102420043945313	0.0034228401184082033	0.0008257920145988461	0.91581298828125	-0.024749099731445314	0.0012772500514984131	0.9277009887695312	-0.04636259841918945	-0.009114230155944824	0.9662550048828125	0.015317999839782714	0.012716400146484374	0.9332449951171875	-0.002125119924545288	0.02011709976196289	0.937469970703125	-0.02156450080871582	0.02359630012512207	0.94652001953125	-0.036083198547363284	0.012353799819946288	0.9738660278320312	-0.04788819885253906	-0.02182069969177246	1.0503199462890624
